<svg width="98" height="40" viewBox="0 0 98 40" fill="none" xmlns="http://www.w3.org/2000/svg">
<rect x="0.00012207" width="98" height="40" rx="10" fill="#191F38"/>
<path d="M20.4161 26V17.418H17.0561V16.2H25.1621V17.418H21.8021V26H20.4161ZM30.8492 26.112C29.5612 26.112 28.5485 25.7433 27.8112 25.006C27.0739 24.2687 26.7052 23.1907 26.7052 21.772V16.2H28.1052V21.716C28.1052 22.808 28.3432 23.606 28.8192 24.11C29.3045 24.614 29.9859 24.866 30.8632 24.866C31.7499 24.866 32.4312 24.614 32.9072 24.11C33.3925 23.606 33.6352 22.808 33.6352 21.716V16.2H34.9932V21.772C34.9932 23.1907 34.6245 24.2687 33.8872 25.006C33.1592 25.7433 32.1465 26.112 30.8492 26.112ZM32.1652 15.164C31.9692 15.164 31.8012 15.0987 31.6612 14.968C31.5212 14.828 31.4512 14.6553 31.4512 14.45C31.4512 14.2353 31.5212 14.0627 31.6612 13.932C31.8012 13.792 31.9692 13.722 32.1652 13.722C32.3612 13.722 32.5292 13.792 32.6692 13.932C32.8092 14.0627 32.8792 14.2353 32.8792 14.45C32.8792 14.6553 32.8092 14.828 32.6692 14.968C32.5292 15.0987 32.3612 15.164 32.1652 15.164ZM29.5612 15.164C29.3652 15.164 29.1972 15.0987 29.0572 14.968C28.9172 14.828 28.8472 14.6553 28.8472 14.45C28.8472 14.2353 28.9172 14.0627 29.0572 13.932C29.1972 13.792 29.3652 13.722 29.5612 13.722C29.7572 13.722 29.9252 13.792 30.0652 13.932C30.2052 14.0627 30.2752 14.2353 30.2752 14.45C30.2752 14.6553 30.2052 14.828 30.0652 14.968C29.9252 15.0987 29.7572 15.164 29.5612 15.164ZM38.1434 26V16.2H39.2914L43.6874 23.606H43.0714L47.4114 16.2H48.5594L48.5734 26H47.2294L47.2154 18.314H47.5374L43.6734 24.81H43.0294L39.1374 18.314H39.4874V26H38.1434ZM55.8545 26.112C54.5665 26.112 53.5538 25.7433 52.8165 25.006C52.0792 24.2687 51.7105 23.1907 51.7105 21.772V16.2H53.1105V21.716C53.1105 22.808 53.3485 23.606 53.8245 24.11C54.3098 24.614 54.9912 24.866 55.8685 24.866C56.7552 24.866 57.4365 24.614 57.9125 24.11C58.3978 23.606 58.6405 22.808 58.6405 21.716V16.2H59.9985V21.772C59.9985 23.1907 59.6298 24.2687 58.8925 25.006C58.1645 25.7433 57.1518 26.112 55.8545 26.112ZM57.1705 15.164C56.9745 15.164 56.8065 15.0987 56.6665 14.968C56.5265 14.828 56.4565 14.6553 56.4565 14.45C56.4565 14.2353 56.5265 14.0627 56.6665 13.932C56.8065 13.792 56.9745 13.722 57.1705 13.722C57.3665 13.722 57.5345 13.792 57.6745 13.932C57.8145 14.0627 57.8845 14.2353 57.8845 14.45C57.8845 14.6553 57.8145 14.828 57.6745 14.968C57.5345 15.0987 57.3665 15.164 57.1705 15.164ZM54.5665 15.164C54.3705 15.164 54.2025 15.0987 54.0625 14.968C53.9225 14.828 53.8525 14.6553 53.8525 14.45C53.8525 14.2353 53.9225 14.0627 54.0625 13.932C54.2025 13.792 54.3705 13.722 54.5665 13.722C54.7625 13.722 54.9305 13.792 55.0705 13.932C55.2105 14.0627 55.2805 14.2353 55.2805 14.45C55.2805 14.6553 55.2105 14.828 55.0705 14.968C54.9305 15.0987 54.7625 15.164 54.5665 15.164Z" fill="white"/>
<path d="M83.8084 20.5329L79.4748 16.1919C79.3514 16.069 79.1844 16 79.0104 16C78.8363 16 78.6694 16.069 78.546 16.1919L78.1523 16.5862C78.0914 16.6471 78.0431 16.7195 78.0102 16.7991C77.9773 16.8788 77.9604 16.9642 77.9606 17.0504C77.9599 17.2265 78.0289 17.3956 78.1523 17.5209L80.6806 20.0599H72.6484C72.5632 20.0589 72.4787 20.0749 72.3998 20.107C72.3208 20.1392 72.2491 20.1867 72.1887 20.2469C72.1284 20.3071 72.0806 20.3788 72.0482 20.4577C72.0158 20.5367 71.9995 20.6213 72.0001 20.7066V21.2638C72.0001 21.6269 72.2862 21.9393 72.6484 21.9393H80.7094L78.1526 24.4915C78.0918 24.5521 78.0436 24.624 78.0107 24.7033C77.9778 24.7826 77.9609 24.8676 77.9609 24.9534C77.9609 25.0392 77.9778 25.1242 78.0107 25.2035C78.0436 25.2827 78.0918 25.3547 78.1526 25.4152L78.546 25.8081C78.6694 25.931 78.8363 26 79.0104 26C79.1844 26 79.3514 25.931 79.4748 25.8081L83.8084 21.4666C83.9312 21.3424 84.0001 21.1746 84.0001 20.9998C84.0001 20.8249 83.9312 20.6571 83.8084 20.5329V20.5329Z" fill="white"/>
</svg>
