<svg width="13" height="15" viewBox="0 0 13 15" fill="none" xmlns="http://www.w3.org/2000/svg">
<path d="M5.8767 14.4575V7.57686C5.58286 7.37793 5.38699 7.03437 5.38699 6.64557C5.38699 6.03076 5.8767 5.53345 6.4822 5.53345C7.0877 5.53345 7.57741 6.03073 7.57741 6.64557C7.57741 7.09764 7.31028 7.48644 6.93632 7.65822V14.4575C6.93632 14.7559 6.69592 15 6.40208 15C6.10824 15 5.8767 14.7559 5.8767 14.4575ZM9.14449 8.84267C9.23354 8.89691 9.32258 8.92403 9.42052 8.92403C9.59861 8.92403 9.7767 8.83361 9.87464 8.66183C10.2753 7.99275 10.4712 7.22421 10.4356 6.43761C10.3465 4.24954 8.52121 2.54069 6.35749 2.62205C5.32462 2.66726 4.36297 3.11933 3.65065 3.90595C2.93832 4.68352 2.57325 5.70523 2.61777 6.76311C2.64448 7.38699 2.80475 7.98372 3.0986 8.52624C3.24105 8.78843 3.57053 8.88792 3.82874 8.7342C4.08695 8.58954 4.17599 8.25498 4.03353 7.99278C3.81984 7.59495 3.70409 7.17 3.67736 6.70887C3.65065 5.94034 3.91775 5.19892 4.42531 4.62931C4.93287 4.0597 5.65409 3.74324 6.41091 3.70706C7.97802 3.64376 9.31363 4.88245 9.37597 6.48282C9.40267 7.05243 9.26022 7.61301 8.96637 8.10126C8.81505 8.35443 8.89521 8.68899 9.14449 8.84267ZM10.7116 10.9313C10.9342 11.1212 11.2726 11.094 11.4685 10.868C12.4568 9.67451 13 8.16456 13 6.60036C13 2.95661 10.0884 0 6.49998 0C2.91161 0 0 2.95661 0 6.60036C0 8.25498 0.605467 9.8282 1.70068 11.0488C1.80754 11.1664 1.95 11.2297 2.09246 11.2297C2.2171 11.2297 2.35067 11.1845 2.44864 11.085C2.66233 10.8861 2.68014 10.5425 2.48427 10.3165C1.57604 9.30383 1.06851 7.98375 1.06851 6.60039C1.06851 3.56243 3.50822 1.08501 6.50002 1.08501C9.49181 1.08501 11.9315 3.5624 11.9315 6.60039C11.9315 7.90239 11.4774 9.1682 10.6493 10.1628C10.4534 10.3888 10.4801 10.7324 10.7116 10.9313Z" fill="#29C7D3"/>
</svg>
