<svg width="14" height="14" viewBox="0 0 14 14" fill="none" xmlns="http://www.w3.org/2000/svg">
<path d="M6.99812 3.40826C5.01056 3.40826 3.40651 5.01231 3.40651 6.99987C3.40651 8.98743 5.01056 10.5915 6.99812 10.5915C8.98567 10.5915 10.5897 8.98743 10.5897 6.99987C10.5897 5.01231 8.98567 3.40826 6.99812 3.40826ZM6.99812 9.33415C5.71277 9.33415 4.66383 8.28521 4.66383 6.99987C4.66383 5.71452 5.71277 4.66559 6.99812 4.66559C8.28346 4.66559 9.3324 5.71452 9.3324 6.99987C9.3324 8.28521 8.28346 9.33415 6.99812 9.33415ZM10.7368 2.42411C10.2728 2.42411 9.89802 2.79886 9.89802 3.26291C9.89802 3.72697 10.2728 4.10172 10.7368 4.10172C11.2009 4.10172 11.5756 3.72872 11.5756 3.26291C11.5758 3.15272 11.5542 3.04359 11.5121 2.94176C11.47 2.83993 11.4082 2.7474 11.3303 2.66948C11.2523 2.59157 11.1598 2.52979 11.058 2.48768C10.9562 2.44558 10.847 2.42397 10.7368 2.42411ZM13.9992 6.99987C13.9992 6.03323 14.008 5.07536 13.9537 4.11047C13.8994 2.98973 13.6437 1.99508 12.8242 1.17554C12.0029 0.354253 11.01 0.100336 9.88927 0.0460508C8.92263 -0.00823491 7.96475 0.00052087 6.99987 0.00052087C6.03323 0.00052087 5.07536 -0.00823491 4.11047 0.0460508C2.98973 0.100336 1.99508 0.356004 1.17554 1.17554C0.354253 1.99683 0.100336 2.98973 0.0460508 4.11047C-0.00823491 5.07711 0.00052087 6.03499 0.00052087 6.99987C0.00052087 7.96475 -0.00823491 8.92438 0.0460508 9.88927C0.100336 11.01 0.356004 12.0047 1.17554 12.8242C1.99683 13.6455 2.98973 13.8994 4.11047 13.9537C5.07711 14.008 6.03498 13.9992 6.99987 13.9992C7.9665 13.9992 8.92438 14.008 9.88927 13.9537C11.01 13.8994 12.0047 13.6437 12.8242 12.8242C13.6455 12.0029 13.8994 11.01 13.9537 9.88927C14.0097 8.92438 13.9992 7.9665 13.9992 6.99987ZM12.4582 11.1291C12.3304 11.4478 12.1763 11.6859 11.9294 11.9311C11.6824 12.178 11.446 12.3321 11.1273 12.46C10.2062 12.8259 8.01904 12.7436 6.99812 12.7436C5.9772 12.7436 3.78826 12.8259 2.86715 12.4617C2.54844 12.3339 2.31029 12.1798 2.06513 11.9329C1.81822 11.6859 1.66411 11.4495 1.53628 11.1308C1.17204 10.208 1.25434 8.02079 1.25434 6.99987C1.25434 5.97895 1.17204 3.79001 1.53628 2.86891C1.66411 2.5502 1.81822 2.31204 2.06513 2.06688C2.31204 1.82172 2.54844 1.66587 2.86715 1.53803C3.78826 1.17379 5.9772 1.2561 6.99812 1.2561C8.01904 1.2561 10.208 1.17379 11.1291 1.53803C11.4478 1.66587 11.6859 1.81997 11.9311 2.06688C12.178 2.31379 12.3321 2.5502 12.46 2.86891C12.8242 3.79001 12.7419 5.97895 12.7419 6.99987C12.7419 8.02079 12.8242 10.208 12.4582 11.1291Z" fill="#BBC7CA"/>
</svg>
