<svg width="12" height="10" viewBox="0 0 12 10" fill="none" xmlns="http://www.w3.org/2000/svg">
<path d="M11.8084 4.5329L7.47476 0.191931C7.35136 0.069004 7.1844 0 7.01037 0C6.83633 0 6.66937 0.069004 6.54598 0.191931L6.15232 0.586231C6.09139 0.647119 6.04308 0.719476 6.01018 0.799138C5.97728 0.8788 5.96044 0.964193 5.96061 1.0504C5.95994 1.22645 6.02886 1.39562 6.15232 1.52092L8.68061 4.05993H0.648432C0.563244 4.05892 0.47871 4.07494 0.399777 4.10705C0.320843 4.13915 0.249094 4.18671 0.188728 4.24692C0.128362 4.30714 0.0805908 4.3788 0.0482093 4.45773C0.0158279 4.53666 -0.000513581 4.62126 0.000140984 4.7066V5.26384C0.000140984 5.62687 0.286238 5.93933 0.648432 5.93933H8.70939L6.15257 8.49154C6.09182 8.55208 6.04362 8.62405 6.01073 8.70331C5.97784 8.78257 5.96091 8.86755 5.96091 8.95339C5.96091 9.03922 5.97784 9.12421 6.01073 9.20346C6.04362 9.28272 6.09182 9.35469 6.15257 9.41523L6.54598 9.80807C6.66937 9.931 6.83633 10 7.01037 10C7.1844 10 7.35136 9.931 7.47476 9.80807L11.8084 5.46661C11.9312 5.34237 12.0001 5.1746 12.0001 4.99976C12.0001 4.82491 11.9312 4.65714 11.8084 4.5329Z" fill="white"/>
</svg>
