<svg width="52" height="52" viewBox="0 0 52 52" fill="none" xmlns="http://www.w3.org/2000/svg">
<path fill-rule="evenodd" clip-rule="evenodd" d="M26.0001 52C40.3595 52 52.0001 40.3594 52.0001 26C52.0001 11.6406 40.3595 0 26.0001 0C11.6407 0 0.00012207 11.6406 0.00012207 26C0.00012207 40.3594 11.6407 52 26.0001 52ZM38.2894 37.0513C39.1408 36.1999 39.6191 35.0453 39.6191 33.8413V24.7619C39.6191 17.2408 33.5211 11.1429 26 11.1429C18.4789 11.1429 12.381 17.2408 12.381 24.7619V33.8413C12.381 35.0453 12.8593 36.1999 13.7106 37.0513C14.562 37.9027 15.7167 38.3809 16.9207 38.3809H20.3254C20.6264 38.3809 20.9151 38.2614 21.1279 38.0485C21.3408 37.8357 21.4603 37.547 21.4603 37.246V28.1667C21.4603 27.8657 21.3408 27.577 21.1279 27.3642C20.9151 27.1513 20.6264 27.0317 20.3254 27.0317H14.6508V24.7619C14.6508 18.4937 19.7319 13.4127 26 13.4127C32.2682 13.4127 37.3492 18.4937 37.3492 24.7619V27.0317H31.6746C31.3736 27.0317 31.085 27.1513 30.8721 27.3642C30.6593 27.577 30.5397 27.8657 30.5397 28.1667V37.246C30.5397 37.547 30.6593 37.8357 30.8721 38.0485C31.085 38.2614 31.3736 38.3809 31.6746 38.3809H35.0794C36.2834 38.3809 37.4381 37.9027 38.2894 37.0513Z" fill="white"/>
</svg>
