<svg width="15" height="12" viewBox="0 0 15 12" fill="none" xmlns="http://www.w3.org/2000/svg">
<path d="M13.033 1.89207C13.6661 1.51358 14.1398 0.917619 14.3657 0.215448C13.7708 0.568442 13.1199 0.817092 12.4412 0.950645C11.9834 0.46641 11.3791 0.146178 10.7213 0.0393122C10.0636 -0.0675542 9.38899 0.044878 8.80147 0.359278C8.21394 0.673678 7.74614 1.17259 7.47016 1.77911C7.19419 2.38563 7.12536 3.06608 7.27429 3.71558C6.06936 3.65509 4.89061 3.34189 3.81456 2.79633C2.73852 2.25076 1.78922 1.48501 1.02829 0.548793C0.641312 1.21627 0.522898 2.006 0.697094 2.75762C0.87129 3.50923 1.32504 4.16637 1.96618 4.59556C1.48502 4.58009 1.01454 4.44982 0.593949 4.2156V4.25374C0.594084 4.9536 0.836283 5.63188 1.27947 6.17354C1.72266 6.7152 2.33956 7.0869 3.02554 7.2256C2.57924 7.34703 2.1111 7.3649 1.65684 7.27787C1.85087 7.87981 2.22799 8.40616 2.73556 8.78346C3.24314 9.16075 3.85584 9.37016 4.48817 9.38247C3.41456 10.2251 2.08869 10.6821 0.723898 10.6798C0.481657 10.6798 0.240122 10.6657 0 10.6382C1.38594 11.5287 2.99897 12.0014 4.64636 11.9998C5.78102 12.0076 6.9059 11.7898 7.95569 11.3592C9.00547 10.9286 9.95922 10.2936 10.7615 9.49124C11.5638 8.68887 12.1987 7.73507 12.6293 6.68525C13.0598 5.63544 13.2775 4.51053 13.2696 3.37588C13.2696 3.24452 13.2668 3.11386 13.2604 2.98392C13.854 2.55496 14.3663 2.02354 14.7732 1.41465C14.2202 1.65975 13.6336 1.82067 13.033 1.89207Z" fill="#BBC8CA"/>
</svg>
