<?xml version="1.0" encoding="utf-8"?>
<!-- Generator: Adobe Illustrator 26.0.3, SVG Export Plug-In . SVG Version: 6.00 Build 0)  -->
<svg version="1.1" id="Layer_1" xmlns="http://www.w3.org/2000/svg" xmlns:xlink="http://www.w3.org/1999/xlink" x="0px" y="0px"
	 viewBox="0 0 80 84" style="enable-background:new 0 0 80 84;" xml:space="preserve">
<style type="text/css">
	.st0{fill:none;}
	.st1{fill:#00A2BF;}
</style>
<g>
	<path class="st0" d="M42,55.3c0.1,0.2,0.3,0.4,0.6,0.5c0.2,0.1,0.5,0.2,0.8,0.2s0.6-0.1,0.8-0.2c0.2-0.1,0.4-0.3,0.6-0.5
		c0.1-0.2,0.3-0.5,0.3-0.7c0.1-0.3,0.1-0.6,0.1-0.8s0-0.6-0.1-0.8c-0.1-0.3-0.2-0.5-0.3-0.7c-0.1-0.2-0.3-0.4-0.6-0.5
		c-0.2-0.1-0.5-0.2-0.8-0.2s-0.6,0.1-0.8,0.2c-0.2,0.1-0.4,0.3-0.6,0.5c-0.1,0.2-0.3,0.5-0.3,0.7c-0.1,0.3-0.1,0.6-0.1,0.8
		s0,0.6,0.1,0.8C41.8,54.8,41.9,55,42,55.3z"/>
	<path class="st0" d="M22.7,51.7c-0.1-0.1-0.2-0.1-0.3-0.1c-0.1,0-0.3,0-0.4,0h-1.7v1.9H22c0.3,0,0.6-0.1,0.8-0.2
		c0.2-0.2,0.3-0.4,0.3-0.7c0-0.2,0-0.3-0.1-0.5C22.9,51.9,22.8,51.8,22.7,51.7z"/>
	<polygon class="st0" points="27.5,51.7 27.5,51.7 26.6,54.3 28.4,54.3 	"/>
	<path class="st0" d="M37,36.6c-0.6,0-1.3,0.6-2.2,1.7c-0.9,1.1-1.6,2.4-2.2,3.9c-0.6,1.5-1,2.7-1,3.7c0,0.6,0.1,1.1,0.3,1.4
		c0.2,0.3,0.5,0.4,0.8,0.4c0.7,0,1.3-0.4,2-1.3c0.7-0.9,1.3-2,1.8-3.4c0.1-0.3,0.2-0.6,0.3-0.9c0.5-1.6,0.8-2.9,0.8-3.9
		c0-0.5-0.1-0.9-0.2-1.1C37.4,36.7,37.2,36.6,37,36.6z"/>
	<path class="st0" d="M34.4,52.2c-0.1-0.2-0.4-0.3-0.6-0.5c-0.3-0.1-0.6-0.2-1-0.2h-1v4.3h1c0.4,0,0.7-0.1,1-0.2
		c0.3-0.1,0.5-0.3,0.6-0.5c0.1-0.2,0.2-0.4,0.3-0.7c0.1-0.3,0.1-0.5,0.1-0.8s0-0.6-0.1-0.8C34.7,52.6,34.6,52.4,34.4,52.2z"/>
	<path class="st1" d="M57.1,9.6c-7,2-11.8,12.9-9.9,19.6c0.9,3.1,3.3,5.4,6.5,4.8c0.5-0.1,1.5-0.4,2.7-1.2c0.6-0.5,1.2-1,1.8-1.5
		c0.2-0.2,0.3-0.3,0.5-0.5c0.1-0.1,0.2-0.3,0.4-0.4c0.1-0.2,0.3-0.3,0.4-0.5l0,0c0,0,2.9-4.4,2.5-0.5c-0.3,7-4,9.8-4.1,9.9
		c-0.7,0.6-1.5,1-2.5,0.6c-0.1-0.1-0.3-0.1-0.4-0.2c0,0,0,0,0,0c-0.2-0.1-0.3-0.2-0.4-0.4c-0.3-0.4-0.4-0.8-0.4-1.5
		c0-0.5,0.1-0.9,0.3-1.2c0.2-0.4,0.5-0.6,0.7-0.9c0.2-0.2,0.4-0.3,0.4-0.3h-2.6c0,0.1-0.1,0.2-0.3,0.4c-0.2,0.2-0.3,0.5-0.4,0.9
		c-0.1,0.4-0.2,0.7-0.2,1.1c0,0.4,0.1,0.7,0.2,1.1c0.2,0.4,0.4,0.7,0.7,1c-0.8,1.8-1.8,3.6-3,5.3c-1.2,1.7-2.4,2.6-3.6,2.6
		c-0.6,0-0.9-0.3-0.9-1c0-0.6,0.2-1.4,0.7-2.5l3.8-9h-3.2l-3.9,9c-0.2,0.5-0.3,1-0.4,1.4c-0.2,0.3-0.5,0.7-0.7,1
		c-0.5,0.6-1.1,1-1.6,1c-0.3,0-0.6-0.1-0.8-0.4c-0.2-0.3-0.3-0.7-0.3-1.1c0-1,0.3-2.3,1-3.9c0.6-1.6,1.4-3.2,2.2-4.7
		c0.7-1.4,1.1-2.2,1.2-2.2H40c-0.1,0.1-0.2,0.3-0.4,0.7c-0.2,0.4-0.4,0.9-0.7,1.5c-0.1-0.8-0.4-1.4-0.8-1.7
		c-0.4-0.4-0.9-0.5-1.4-0.5c-1.1,0-2.3,0.5-3.6,1.6c-1,0.8-1.9,1.9-2.7,3.1c-0.2,0-0.3,0.1-0.5,0.1c-0.5,0-1-0.2-1.3-0.5
		c-0.4-0.4-0.5-0.9-0.5-1.6c0-0.5,0.1-0.9,0.3-1.2c0.2-0.4,0.5-0.6,0.7-0.9c0.2-0.2,0.4-0.3,0.4-0.3h-2.6c0,0.1-0.1,0.2-0.3,0.4
		c-0.2,0.2-0.3,0.5-0.4,0.9C26,37,26,37.4,26,37.8c0,0.4,0.1,0.7,0.2,1.1c0.2,0.4,0.4,0.7,0.7,1c-0.8,1.8-1.8,3.6-3,5.3
		c-1.2,1.7-2.4,2.6-3.6,2.6c-0.6,0-0.9-0.3-0.9-1c0-0.6,0.2-1.4,0.7-2.5l3.8-9h-3.2l-3.9,9c-0.3,0.8-0.5,1.5-0.5,2.2
		c0,0.9,0.3,1.6,0.8,2.2c0.5,0.6,1.2,0.8,1.9,0.8c2.1,0,3.9-1,5.4-3.1c1.5-2,2.7-4,3.4-5.9c0.4,0.2,0.9,0.3,1.5,0.3
		c0.2,0,0.3,0,0.5,0c0,0,0,0.1,0,0.1c-0.9,1.7-1.3,3.4-1.3,5c0,0.9,0.3,1.8,0.8,2.5s1.3,1.1,2.3,1.1c0.7,0,1.5-0.3,2.2-0.9
		c0.7-0.6,1.4-1.3,2.1-2.3c0.1,0.9,0.4,1.7,0.9,2.3c0.5,0.6,1.3,0.9,2.1,0.9c0.9,0,1.8-0.4,2.6-1.2c0.4-0.4,0.7-0.7,1-1.1
		c0.1,0.6,0.4,1,0.7,1.4c0.5,0.6,1.2,0.8,1.9,0.8c2.1,0,3.9-1,5.4-3.1c1.5-2,2.7-4,3.4-5.9c0.4,0.2,0.9,0.3,1.5,0.3
		c0.5,0,1-0.1,1.4-0.3c0,0,0,0,0,0c1.4-0.5,2.8-2.7,3.6-4c0.2-0.3,0.3-0.6,0.5-1c0,0,0,0,0-0.1c0,0,0,0,0,0c0,0,0-0.1,0-0.1l0,0
		c0.9-2,1.5-4.1,1.9-5.7c0.1-0.5,0.3-1.1,0.4-1.6c0-0.2,0.1-0.5,0.1-0.7c0,0,0,0,0,0l0,0c0-0.4,0.1-0.8,0-1.1c0-0.2,0-0.3,0-0.4
		c-0.1-1.3-0.6-2.2-1.6-2.6c-3.6-1.1-7.4,7-10.4,3.6c-4.4-5,5.4-19.2,10.7-12.3c7.3,9.6-0.9,25.9-7,33.8
		C47.8,58.1,33.5,69,21.2,61.3c-13.6-8.6-8.7-26.9-4-39c-5.8,9.6-9.2,20.9-6.5,32.1C13,64,20.3,71.6,30.6,71.7
		c23.1,0.3,40.5-27.6,39.2-48.5C69.4,17,64.9,7.3,57.1,9.6z M36.9,42c-0.1,0.3-0.3,0.7-0.3,0.9c-0.5,1.4-1.1,2.5-1.8,3.4
		c-0.7,0.9-1.3,1.3-2,1.3c-0.3,0-0.6-0.1-0.8-0.4c-0.2-0.3-0.3-0.8-0.3-1.4c0-1,0.3-2.2,1-3.7c0.6-1.5,1.4-2.8,2.2-3.9
		c0.9-1.1,1.6-1.7,2.2-1.7c0.2,0,0.4,0.1,0.5,0.4c0.1,0.3,0.2,0.7,0.2,1.1C37.7,39.1,37.5,40.3,36.9,42z"/>
	<path class="st1" d="M55,39.7C55,39.7,55,39.7,55,39.7c-0.1-0.1-0.2-0.1-0.3-0.2c0,0-0.1-0.1-0.1-0.1C54.7,39.5,54.8,39.6,55,39.7z
		"/>
	<path class="st1" d="M63.7,6.5c1.1,0.5,2.1,1.2,2.9,2.1c0,0,0,0,0,0C56.9-4,37.8-2.7,22.5,12.3c-3,2.9-5.6,6.1-7.8,9.5
		c1.4-1.7,2.8-3.2,4.4-4.8C33.8,2.6,51.5-1,63.7,6.5z"/>
	<path class="st1" d="M75,16.4c0.3,1.2,0.5,2.5,0.5,3.6c1.5,24.4-18.8,57-45.8,56.6c-12-0.2-20.5-9-23.2-20.3
		c-2.4-10-0.6-20,3.4-29.2C2.1,42.5,0.9,60,8.1,72c10,16.6,32.3,16,50-1.3C73.3,55.6,80.1,33,75,16.4z"/>
	<path class="st1" d="M23.4,53.7c0.1-0.1,0.2-0.1,0.3-0.2c0.1-0.1,0.2-0.3,0.3-0.5c0.1-0.2,0.1-0.4,0.1-0.7c0-0.5-0.2-0.9-0.5-1.2
		c-0.3-0.3-0.8-0.4-1.5-0.4h-2.9v6h1v-2.5h1.5c0.2,0,0.4,0,0.6,0.1c0.2,0.1,0.3,0.2,0.4,0.3c0.1,0.1,0.2,0.3,0.2,0.5
		c0,0.2,0.1,0.4,0.1,0.7c0,0.1,0,0.3,0,0.5c0,0.2,0.1,0.3,0.1,0.4h1.1c-0.1-0.1-0.2-0.3-0.2-0.6c-0.1-0.3-0.1-0.6-0.1-1
		c0-0.2,0-0.4-0.1-0.6c-0.1-0.2-0.1-0.3-0.2-0.4c-0.1-0.1-0.2-0.2-0.3-0.2c-0.1,0-0.2-0.1-0.3-0.1v0C23.2,53.8,23.2,53.8,23.4,53.7z
		 M22.8,53.2c-0.2,0.2-0.4,0.2-0.8,0.2h-1.7v-1.9H22c0.1,0,0.3,0,0.4,0c0.1,0,0.2,0.1,0.3,0.1c0.1,0.1,0.2,0.2,0.2,0.3
		c0.1,0.1,0.1,0.3,0.1,0.5C23.1,52.8,23,53,22.8,53.2z"/>
	<path class="st1" d="M28.7,55.1l0.6,1.6h1.1l-2.3-6h-1.1l-2.3,6h1.1l0.6-1.6H28.7z M27.5,51.7L27.5,51.7l0.9,2.6h-1.8L27.5,51.7z"
		/>
	<path class="st1" d="M34.4,50.9c-0.3-0.2-0.7-0.2-1.2-0.2h-2.5v6h2.5c0.5,0,0.9-0.1,1.2-0.2c0.3-0.2,0.6-0.4,0.8-0.6
		c0.2-0.3,0.4-0.6,0.5-0.9c0.1-0.4,0.2-0.7,0.2-1.2c0-0.4-0.1-0.8-0.2-1.2c-0.1-0.4-0.3-0.7-0.5-0.9C35,51.3,34.7,51.1,34.4,50.9z
		 M34.7,54.5c-0.1,0.3-0.2,0.5-0.3,0.7c-0.1,0.2-0.4,0.3-0.6,0.5c-0.3,0.1-0.6,0.2-1,0.2h-1v-4.3h1c0.4,0,0.7,0.1,1,0.2
		c0.3,0.1,0.5,0.3,0.6,0.5c0.1,0.2,0.2,0.4,0.3,0.7c0.1,0.3,0.1,0.5,0.1,0.8S34.8,54.3,34.7,54.5z"/>
	<polygon class="st1" points="38.2,53.4 36.6,50.7 35.4,50.7 37.7,54.3 37.7,56.7 38.7,56.7 38.7,54.3 40.9,50.7 39.8,50.7 	"/>
	<path class="st1" d="M40.7,54.9c0.1,0.4,0.3,0.7,0.6,1c0.2,0.3,0.5,0.5,0.9,0.7c0.4,0.2,0.8,0.2,1.2,0.2c0.4,0,0.8-0.1,1.2-0.2
		c0.4-0.2,0.7-0.4,0.9-0.7c0.2-0.3,0.4-0.6,0.6-1c0.1-0.4,0.2-0.8,0.2-1.2c0-0.4-0.1-0.8-0.2-1.2c-0.1-0.4-0.3-0.7-0.6-1
		c-0.2-0.3-0.5-0.5-0.9-0.7c-0.4-0.2-0.8-0.3-1.2-0.3c-0.4,0-0.8,0.1-1.2,0.3c-0.4,0.2-0.7,0.4-0.9,0.7c-0.2,0.3-0.4,0.6-0.6,1
		c-0.1,0.4-0.2,0.8-0.2,1.2C40.5,54.1,40.6,54.5,40.7,54.9z M41.7,52.9c0.1-0.3,0.2-0.5,0.3-0.7c0.1-0.2,0.3-0.4,0.6-0.5
		c0.2-0.1,0.5-0.2,0.8-0.2s0.6,0.1,0.8,0.2c0.2,0.1,0.4,0.3,0.6,0.5c0.1,0.2,0.3,0.5,0.3,0.7c0.1,0.3,0.1,0.6,0.1,0.8s0,0.6-0.1,0.8
		c-0.1,0.3-0.2,0.5-0.3,0.7c-0.1,0.2-0.3,0.4-0.6,0.5C44,55.9,43.7,56,43.4,56s-0.6-0.1-0.8-0.2c-0.2-0.1-0.4-0.3-0.6-0.5
		c-0.1-0.2-0.3-0.5-0.3-0.7c-0.1-0.3-0.1-0.6-0.1-0.8S41.6,53.1,41.7,52.9z"/>
</g>
</svg>
