<svg width="50" height="60" viewBox="0 0 50 60" fill="none" xmlns="http://www.w3.org/2000/svg">
<g clip-path="url(#clip0_1_20375)">
<path d="M27.1107 30.4318C26.4745 29.4256 24.4844 28.4454 22.9382 29.4848C18.6066 32.3997 20.7595 36.5796 22.1984 36.6425C24.1293 37.1196 26.3191 36.6425 26.9221 38.0518C26.6594 39.561 23.5078 41.2034 21.4882 42.3982C19.4685 43.593 15.6363 44.9431 12.8361 44.7915C10.0359 44.6398 8.86332 42.1762 8.49341 40.1898C8.12351 38.2035 9.92495 34.6006 9.87686 33.5944C6.34797 38.7287 6.13712 46.0269 10.6463 47.5768C15.1554 49.1267 19.5462 46.1305 20.8112 45.4425C22.0763 44.7545 26.948 42.154 28.1723 38.4846C28.6099 37.1487 28.742 35.7316 28.5589 34.3379C28.3758 32.9442 27.8822 31.6093 27.1144 30.4318H27.1107ZM22.5979 33.4502C21.8914 33.3466 22.2724 31.8929 23.5929 32.0002C24.9135 32.1074 25.7088 33.9015 25.7088 33.9015L22.5868 33.4502" fill="#09BED1"/>
<path d="M21.6693 29.4405C22.4091 28.5009 22.6644 26.2963 21.1662 25.1903C16.9678 22.0868 13.7682 25.5158 14.175 26.8881C14.3711 28.8671 15.5733 30.7648 14.4303 31.8116C12.9174 32.0705 10.3132 29.655 8.51181 28.1495C6.71037 26.644 4.15063 23.4924 3.35534 20.8032C2.56004 18.114 4.49095 16.1831 6.2369 15.1659C7.98284 14.1486 11.9815 14.6406 12.8952 14.2596C6.87313 12.6579 -0.0514824 14.9032 -0.018191 19.6713C0.0151004 24.4394 4.32819 27.5688 5.40091 28.549C6.47363 29.5293 10.5574 33.2246 14.4229 33.1506C15.828 33.1157 17.2072 32.765 18.4583 32.1247C19.7095 31.4844 20.8006 30.5708 21.6508 29.4516L21.6693 29.4405ZM17.3155 26.1964C17.175 25.5047 18.6805 25.3678 19.0134 26.6477C19.3463 27.9276 17.9407 29.2888 17.9407 29.2888L17.3192 26.1964" fill="#09BED1"/>
<path d="M20.8224 23.9216C21.9321 24.3174 24.1183 23.8513 24.6842 22.072C26.2674 17.1005 21.9876 15.1474 20.8261 16.0019C19.0136 16.8268 17.6042 18.5912 16.2467 17.8292C15.5069 16.4828 16.9643 13.2387 17.8077 11.0489C18.6511 8.85905 20.815 5.42264 23.1195 3.80246C25.424 2.18228 27.858 3.38817 29.382 4.71612C30.906 6.04408 31.7161 9.96877 32.3671 10.7456C31.9491 4.52747 27.5843 -1.32442 23.0862 0.262473C18.5882 1.84936 17.0087 6.92076 16.4279 8.24501C15.8472 9.56927 13.6796 14.6296 14.9816 18.2694C15.4692 19.5891 16.2473 20.7823 17.2584 21.7606C18.2694 22.739 19.4874 23.4775 20.8224 23.9216ZM22.4907 18.7429C23.1084 18.373 23.7114 19.7564 22.609 20.4963C21.5067 21.2361 19.7645 20.3261 19.7645 20.3261L22.4907 18.7466" fill="#09BED1"/>
<path d="M25.8528 21.3582C25.8195 22.5493 26.9293 24.4728 28.7899 24.4654C34.0129 24.4654 34.5493 19.7787 33.3878 18.9168C32.0524 17.4372 29.9551 16.6382 30.2473 15.1179C31.3052 14.0082 34.8341 14.3781 37.1793 14.5261C39.5245 14.674 43.4677 15.6617 45.6871 17.3447C47.9065 19.0278 47.5366 21.7281 46.7377 23.585C45.9387 25.442 42.4431 27.4357 41.9289 28.2976C47.7253 26.0042 51.9718 20.0561 49.068 16.2572C46.1643 12.4583 40.8747 12.5175 39.432 12.3843C37.9894 12.2512 32.5037 11.7074 29.4446 14.0748C28.3389 14.9425 27.4421 16.0474 26.8205 17.308C26.1988 18.5686 25.8681 19.9527 25.8528 21.3582ZM31.2793 21.3582C31.812 21.8354 30.6875 22.8378 29.6481 22.0092C28.6086 21.1807 28.9378 19.2461 28.9378 19.2461L31.2793 21.3582Z" fill="#09BED1"/>
<path d="M29.8221 25.2607C28.6828 25.6306 27.2328 27.2841 27.8247 29.0448C29.5262 33.983 34.113 32.9843 34.5495 31.6119C35.5076 29.8734 35.5963 27.6281 37.1388 27.4135C38.5334 28.0572 39.3065 31.5232 39.9353 33.787C40.5642 36.0508 40.886 40.0754 40.0167 42.7609C39.1474 45.4464 36.4619 45.9235 34.4459 45.7682C32.43 45.6128 29.4152 42.9421 28.435 42.7276C32.4818 47.4623 39.4766 49.5523 42.1215 45.598C44.7663 41.6438 43.0203 36.6278 42.6837 35.2407C42.3471 33.8536 41.0931 28.4641 37.875 26.3297C36.6981 25.5619 35.3637 25.0685 33.9704 24.886C32.5772 24.7035 31.1607 24.8366 29.8258 25.2755L29.8221 25.2607ZM31.5718 30.4134C31.287 31.0719 29.9849 30.3284 30.4288 29.0781C30.8727 27.8278 32.8147 27.5171 32.8147 27.5171L31.5718 30.4134Z" fill="#09BED1"/>
<path d="M24.1997 24.9388L25.1466 23.2224L25.9345 25.0201L27.858 25.3901L26.3932 26.6921L26.6374 28.6378L24.9432 27.6502L23.1676 28.4825L23.5856 26.5626L22.2466 25.1311L24.1997 24.9388Z" fill="#027F8C"/>
<path d="M12.74 52.3082C12.771 52.2151 12.7872 52.1178 12.7881 52.0197C12.7901 51.9393 12.776 51.8593 12.7468 51.7844C12.7176 51.7094 12.6738 51.641 12.6179 51.5832L12.1518 51.1097C12.0897 51.0529 12.0102 51.019 11.9262 51.0135C11.8539 51.0128 11.7839 51.0392 11.7301 51.0875L10.9533 51.672L11.2937 52.0678C11.4379 52.2453 11.5489 52.3859 11.6192 52.4932C11.6417 52.5325 11.6532 52.5773 11.6525 52.6226C11.6478 52.7003 11.6264 52.776 11.5896 52.8446L9.61799 56.8839C9.58298 56.9573 9.52714 57.0188 9.45743 57.0607C9.38771 57.1026 9.30722 57.123 9.22597 57.1195C9.14472 57.1159 9.06631 57.0885 9.00052 57.0407C8.93473 56.9929 8.88446 56.9268 8.85598 56.8506L6.95467 51.979C6.93377 51.9403 6.92236 51.8972 6.92138 51.8532C6.91703 51.8263 6.91703 51.7988 6.92138 51.7718C6.9408 51.7277 6.96987 51.6885 7.00646 51.6572L7.12853 51.5573C7.156 51.5346 7.17841 51.5065 7.19434 51.4746C7.21026 51.4428 7.21935 51.4079 7.22101 51.3723C7.22368 51.3515 7.22368 51.3303 7.22101 51.3095C7.19626 51.2604 7.16088 51.2174 7.11743 51.1837C7.06154 51.1394 6.99267 51.1147 6.92138 51.1134H5.03117C4.99559 51.1101 4.95976 51.1162 4.92729 51.1312C4.89482 51.1461 4.86686 51.1693 4.84622 51.1985C4.82597 51.2266 4.8144 51.26 4.81293 51.2947C4.81131 51.3275 4.8204 51.3599 4.83882 51.3871C4.85922 51.4412 4.89869 51.4859 4.94979 51.5129C5.01682 51.558 5.08881 51.5952 5.16434 51.6239C5.24865 51.6599 5.33024 51.7019 5.40847 51.7497C5.52969 51.8336 5.62768 51.9468 5.6933 52.0789C5.75988 52.2342 5.86716 52.5043 6.01512 52.8964L8.12727 58.7519C8.12727 58.7852 8.15687 58.8444 8.18646 58.9258C8.2024 58.9802 8.22742 59.0314 8.26044 59.0775C8.28469 59.1087 8.31628 59.1335 8.35242 59.1497C8.38856 59.1658 8.42811 59.1728 8.46758 59.1699H9.30727C9.37865 59.1692 9.4477 59.1444 9.50332 59.0997C9.54631 59.0425 9.58232 58.9804 9.61059 58.9147L12.3368 53.2478C12.4925 52.9442 12.6272 52.6302 12.74 52.3082ZM19.8976 58.7963C19.8301 58.75 19.7583 58.7104 19.6831 58.678C19.6003 58.6399 19.52 58.5967 19.4427 58.5485C19.318 58.4718 19.2188 58.3598 19.1578 58.2267C18.9655 57.7902 18.7361 57.2538 18.4624 56.6176L17.6153 54.6571C17.3219 53.9839 17.0383 53.3291 16.7645 52.6929C16.5389 52.1639 16.3355 51.6831 16.1505 51.254C16.1202 51.1805 16.069 51.1175 16.0032 51.0728C15.9375 51.0281 15.8601 51.0036 15.7806 51.0024C15.7017 51.0043 15.625 51.0285 15.5595 51.0724C15.494 51.1164 15.4424 51.178 15.4107 51.2503L12.2998 58.2045C12.2445 58.3283 12.1562 58.4345 12.0446 58.5115C11.9859 58.5522 11.924 58.588 11.8596 58.6188L11.6858 58.7002C11.5783 58.7398 11.488 58.8157 11.4305 58.9147C11.4261 58.9491 11.4261 58.9839 11.4305 59.0183C11.4327 59.0293 11.4327 59.0406 11.4305 59.0516C11.454 59.0886 11.487 59.1188 11.526 59.1389C11.565 59.1591 11.6086 59.1685 11.6525 59.1662H13.0914C13.1508 59.1694 13.2093 59.1515 13.2567 59.1156C13.3041 59.0797 13.3373 59.0282 13.3503 58.9702C13.3558 58.9471 13.3558 58.923 13.3503 58.8999C13.3517 58.874 13.3517 58.8481 13.3503 58.8222C13.335 58.777 13.3126 58.7345 13.2837 58.6965C13.2608 58.6665 13.2432 58.6327 13.232 58.5966C13.2281 58.5696 13.2281 58.5422 13.232 58.5152C13.2301 58.4931 13.2301 58.4708 13.232 58.4486C13.2375 58.3859 13.2538 58.3246 13.28 58.2674L13.6758 57.3167L13.9348 56.6953C13.965 56.6214 14.016 56.5579 14.0817 56.5126C14.1474 56.4672 14.2249 56.442 14.3047 56.44H16.8311C16.9105 56.4417 16.9877 56.4664 17.0533 56.511C17.119 56.5557 17.1703 56.6184 17.201 56.6916L17.8854 58.2674C17.9089 58.3224 17.9215 58.3814 17.9223 58.4412C17.9262 58.4657 17.9262 58.4907 17.9223 58.5152C17.9071 58.5606 17.8788 58.6005 17.841 58.6299L17.7226 58.7261C17.6936 58.7462 17.6695 58.7726 17.6522 58.8033C17.6349 58.8341 17.6248 58.8684 17.6227 58.9036C17.6165 58.9279 17.6165 58.9533 17.6227 58.9776C17.6472 59.0312 17.6871 59.0763 17.7374 59.1071C17.7967 59.1489 17.8683 59.1698 17.9408 59.1662H19.8274C19.8645 59.1718 19.9024 59.1659 19.9361 59.1494C19.9698 59.1329 19.9977 59.1065 20.016 59.0738C20.0318 59.0454 20.0406 59.0137 20.0419 58.9813C20.042 58.9527 20.0343 58.9245 20.0197 58.8999C19.988 58.856 19.9461 58.8204 19.8976 58.7963ZM16.169 55.7816H14.9446C14.8763 55.7817 14.8089 55.765 14.7486 55.733C14.6882 55.701 14.6365 55.6546 14.5982 55.598C14.5599 55.5415 14.536 55.4763 14.5287 55.4084C14.5214 55.3404 14.5308 55.2717 14.5562 55.2083C14.6857 54.9012 14.8225 54.5757 14.9631 54.2317C15.0371 54.0616 15.1037 53.9025 15.1666 53.7508C15.1979 53.6751 15.251 53.6103 15.3191 53.5647C15.3873 53.5192 15.4674 53.4949 15.5494 53.4949C15.6314 53.4949 15.7115 53.5192 15.7797 53.5647C15.8478 53.6103 15.9009 53.6751 15.9323 53.7508L16.5537 55.2009C16.5775 55.2636 16.5858 55.3312 16.5779 55.3979C16.57 55.4645 16.5462 55.5283 16.5085 55.5838C16.4707 55.6394 16.4202 55.685 16.3611 55.7168C16.302 55.7487 16.2361 55.7658 16.169 55.7668V55.7816ZM25.3389 51.1097C25.2759 51.0522 25.1948 51.0182 25.1096 51.0135C25.0375 51.0138 24.9679 51.0401 24.9135 51.0875L24.1404 51.672L24.4808 52.0678C24.625 52.2453 24.7323 52.3859 24.8026 52.4932C24.8251 52.5325 24.8366 52.5773 24.8359 52.6226C24.8328 52.7001 24.8125 52.7759 24.7767 52.8446L22.7866 56.8839C22.7516 56.9573 22.6957 57.0188 22.626 57.0607C22.5563 57.1026 22.4758 57.123 22.3946 57.1195C22.3133 57.1159 22.2349 57.0885 22.1691 57.0407C22.1033 56.9929 22.0531 56.9268 22.0246 56.8506L20.1196 51.979C20.0987 51.9403 20.0873 51.8972 20.0863 51.8532C20.0819 51.8263 20.0819 51.7988 20.0863 51.7718C20.1058 51.7268 20.1363 51.6873 20.1751 51.6572L20.2934 51.5573C20.3214 51.5348 20.3444 51.5068 20.361 51.4749C20.3775 51.4431 20.3873 51.4082 20.3896 51.3723C20.3923 51.3515 20.3923 51.3303 20.3896 51.3095C20.3631 51.2605 20.3265 51.2176 20.2823 51.1837C20.227 51.1384 20.1578 51.1136 20.0863 51.1134H18.1961C18.1605 51.1105 18.1248 51.1168 18.0924 51.1317C18.06 51.1466 18.032 51.1696 18.0111 51.1985C17.9909 51.2266 17.9793 51.26 17.9778 51.2947C17.9773 51.3279 17.9877 51.3604 18.0074 51.3871C18.0278 51.4412 18.0673 51.4859 18.1184 51.5129C18.1836 51.5588 18.2545 51.5961 18.3292 51.6239C18.4147 51.6598 18.4976 51.7019 18.5771 51.7497C18.6983 51.8336 18.7963 51.9468 18.8619 52.0789C18.9285 52.2342 19.0358 52.5043 19.1837 52.8964L21.2922 58.7519L21.3551 58.9258C21.3703 58.9798 21.394 59.0309 21.4253 59.0775C21.4509 59.1089 21.4839 59.1335 21.5214 59.149C21.5588 59.1645 21.5996 59.1704 21.6399 59.1662H22.4833C22.5547 59.1655 22.6237 59.1407 22.6793 59.096C22.7211 59.0387 22.7559 58.9766 22.7829 58.911L25.5054 53.2478C25.6603 52.943 25.7937 52.6278 25.9049 52.3045C25.9369 52.2116 25.9544 52.1143 25.9567 52.016C25.958 51.9353 25.9433 51.8553 25.9134 51.7803C25.8836 51.7054 25.8392 51.6372 25.7828 51.5795L25.3389 51.1097ZM35.0452 51.0875H29.7778C29.565 51.0687 29.3509 51.1004 29.1526 51.18C29.0528 51.2392 29.0047 51.3908 29.0047 51.6276V52.6596C29.0047 52.8113 29.0898 52.889 29.2599 52.889C29.3487 52.889 29.4597 52.7965 29.5891 52.6115C29.7256 52.4101 29.879 52.2208 30.0478 52.0456C30.1055 51.9842 30.1756 51.9356 30.2533 51.9031C30.3311 51.8706 30.4148 51.8549 30.4991 51.8569H31.3647C31.4755 51.8569 31.5819 51.901 31.6602 51.9794C31.7386 52.0577 31.7827 52.1641 31.7827 52.2749V58.2452C31.7896 58.3328 31.7651 58.4199 31.7136 58.4911C31.662 58.5623 31.5869 58.6128 31.5015 58.6336C31.3166 58.7002 31.2241 58.8074 31.2241 58.948C31.2241 59.0886 31.3092 59.1699 31.4793 59.1699H33.3696C33.5397 59.1699 33.6211 59.096 33.6211 58.948C33.6211 58.8 33.5286 58.7002 33.3437 58.6336C33.2583 58.6128 33.1832 58.5623 33.1317 58.4911C33.0801 58.4199 33.0556 58.3328 33.0625 58.2452V52.2749C33.0625 52.1641 33.1066 52.0577 33.185 51.9794C33.2634 51.901 33.3697 51.8569 33.4805 51.8569H34.3239C34.4076 51.8547 34.4909 51.8704 34.5681 51.9029C34.6453 51.9354 34.7146 51.9841 34.7715 52.0456C34.9359 52.2246 35.0891 52.4136 35.2302 52.6115C35.3683 52.7965 35.4792 52.889 35.5631 52.889C35.7332 52.889 35.8183 52.8113 35.8183 52.6596V51.6276C35.8183 51.3834 35.7776 51.2318 35.6889 51.1726C35.4775 51.0942 35.251 51.0651 35.0267 51.0875H35.0452ZM45.0327 51.5832L44.574 51.1097C44.5109 51.0522 44.4299 51.0182 44.3446 51.0135C44.2724 51.0131 44.2025 51.0395 44.1486 51.0875L43.3718 51.672L43.7121 52.0678C43.8282 52.2036 43.9369 52.3456 44.0376 52.4932C44.0602 52.5325 44.0717 52.5773 44.0709 52.6226C44.0663 52.7003 44.0448 52.776 44.008 52.8446L42.0364 56.8839C42.0014 56.9573 41.9456 57.0188 41.8759 57.0607C41.8061 57.1026 41.7257 57.123 41.6444 57.1195C41.5632 57.1159 41.4847 57.0885 41.419 57.0407C41.3532 56.9929 41.3029 56.9268 41.2744 56.8506L39.3731 51.979C39.3522 51.9403 39.3408 51.8972 39.3398 51.8532C39.3355 51.8263 39.3355 51.7988 39.3398 51.7718C39.3592 51.7277 39.3883 51.6885 39.4249 51.6572L39.547 51.5573C39.5744 51.5346 39.5968 51.5065 39.6128 51.4746C39.6287 51.4428 39.6378 51.4079 39.6394 51.3723C39.6421 51.3515 39.6421 51.3303 39.6394 51.3095C39.6147 51.2604 39.5793 51.2174 39.5359 51.1837C39.4803 51.1389 39.4112 51.1142 39.3398 51.1134H37.4496C37.4141 51.1105 37.3784 51.1168 37.346 51.1317C37.3136 51.1466 37.2856 51.1696 37.2647 51.1985C37.2444 51.2266 37.2328 51.26 37.2314 51.2947C37.2297 51.3275 37.2388 51.3599 37.2573 51.3871C37.2792 51.4415 37.3199 51.4861 37.3719 51.5129C37.4372 51.5588 37.508 51.5961 37.5828 51.6239C37.6671 51.6599 37.7487 51.7019 37.8269 51.7497C37.949 51.8326 38.0472 51.9461 38.1117 52.0789C38.1783 52.2342 38.2856 52.5043 38.4373 52.8964L40.5457 58.7519C40.5457 58.7852 40.5753 58.8444 40.6049 58.9258C40.6208 58.9802 40.6459 59.0314 40.6789 59.0775C40.7033 59.1085 40.735 59.1331 40.7711 59.1492C40.8071 59.1653 40.8466 59.1724 40.886 59.1699H41.7257C41.7972 59.1698 41.8664 59.1449 41.9218 59.0997C41.9647 59.0425 42.0008 58.9804 42.029 58.9147L44.7367 53.2478C44.8942 52.9437 45.0289 52.6284 45.1399 52.3045C45.1719 52.2116 45.1894 52.1143 45.1917 52.016C45.1933 51.8544 45.1308 51.6988 45.0179 51.5832H45.0327Z" fill="#027F8C"/>
<path d="M12.74 52.3082C12.771 52.2151 12.7872 52.1178 12.7881 52.0197C12.7901 51.9393 12.776 51.8593 12.7468 51.7844C12.7176 51.7094 12.6738 51.641 12.6179 51.5832L12.1518 51.1097C12.0897 51.0529 12.0102 51.019 11.9262 51.0135C11.8539 51.0128 11.7839 51.0392 11.7301 51.0875L10.9533 51.672L11.2937 52.0678C11.4379 52.2453 11.5489 52.3859 11.6192 52.4932C11.6417 52.5325 11.6532 52.5773 11.6525 52.6226C11.6478 52.7003 11.6264 52.776 11.5896 52.8446L9.61799 56.8839C9.58298 56.9573 9.52714 57.0188 9.45743 57.0607C9.38771 57.1026 9.30722 57.123 9.22597 57.1195C9.14472 57.1159 9.06631 57.0885 9.00052 57.0407C8.93473 56.9929 8.88446 56.9268 8.85598 56.8506L6.95468 51.979C6.93377 51.9403 6.92236 51.8972 6.92138 51.8532C6.91703 51.8263 6.91703 51.7988 6.92138 51.7718C6.9408 51.7277 6.96987 51.6885 7.00646 51.6572L7.12853 51.5573C7.156 51.5346 7.17841 51.5065 7.19434 51.4746C7.21026 51.4428 7.21935 51.4079 7.22101 51.3723C7.22368 51.3515 7.22368 51.3303 7.22101 51.3095C7.19626 51.2604 7.16088 51.2174 7.11743 51.1837C7.06154 51.1394 6.99267 51.1147 6.92138 51.1134H5.03117C4.99559 51.1101 4.95976 51.1162 4.92729 51.1312C4.89482 51.1461 4.86686 51.1693 4.84622 51.1985C4.82597 51.2266 4.8144 51.26 4.81293 51.2947C4.81131 51.3275 4.8204 51.3599 4.83882 51.3871C4.85922 51.4412 4.89869 51.4859 4.94979 51.5129C5.01682 51.558 5.08881 51.5952 5.16434 51.6239C5.24865 51.6599 5.33024 51.7019 5.40847 51.7497C5.52969 51.8336 5.62768 51.9468 5.6933 52.0789C5.75988 52.2342 5.86716 52.5043 6.01512 52.8964L8.12727 58.7519C8.12727 58.7852 8.15687 58.8444 8.18646 58.9258C8.2024 58.9802 8.22742 59.0314 8.26044 59.0775C8.28469 59.1087 8.31628 59.1335 8.35242 59.1497C8.38856 59.1658 8.42811 59.1728 8.46758 59.1699H9.30727C9.37865 59.1692 9.4477 59.1444 9.50332 59.0997C9.54631 59.0425 9.58232 58.9804 9.61059 58.9147L12.3368 53.2478C12.4925 52.9442 12.6272 52.6302 12.74 52.3082V52.3082ZM19.8976 58.7963C19.8301 58.75 19.7583 58.7104 19.6831 58.678C19.6003 58.6399 19.52 58.5967 19.4427 58.5485C19.318 58.4718 19.2188 58.3598 19.1578 58.2267C18.9655 57.7902 18.7361 57.2538 18.4624 56.6176L17.6153 54.6571C17.3219 53.9839 17.0383 53.3291 16.7645 52.6929C16.5389 52.1639 16.3355 51.6831 16.1505 51.254C16.1202 51.1805 16.069 51.1175 16.0032 51.0728C15.9375 51.0281 15.8601 51.0036 15.7806 51.0024C15.7017 51.0043 15.625 51.0285 15.5595 51.0724C15.494 51.1164 15.4424 51.178 15.4107 51.2503L12.2998 58.2045C12.2445 58.3283 12.1562 58.4345 12.0446 58.5115C11.9859 58.5522 11.924 58.588 11.8596 58.6188L11.6858 58.7002C11.5783 58.7398 11.488 58.8157 11.4305 58.9147C11.4261 58.9491 11.4261 58.9839 11.4305 59.0183C11.4327 59.0293 11.4327 59.0406 11.4305 59.0516C11.454 59.0886 11.487 59.1188 11.526 59.1389C11.565 59.1591 11.6086 59.1685 11.6525 59.1662H13.0914C13.1508 59.1694 13.2093 59.1515 13.2567 59.1156C13.3041 59.0797 13.3373 59.0282 13.3503 58.9702C13.3558 58.9471 13.3558 58.923 13.3503 58.8999C13.3517 58.874 13.3517 58.8481 13.3503 58.8222C13.335 58.777 13.3126 58.7345 13.2837 58.6965C13.2608 58.6665 13.2432 58.6327 13.232 58.5966C13.2281 58.5696 13.2281 58.5422 13.232 58.5152C13.2301 58.4931 13.2301 58.4708 13.232 58.4486C13.2375 58.3859 13.2538 58.3246 13.28 58.2674L13.6758 57.3167L13.9348 56.6953C13.965 56.6214 14.016 56.5579 14.0817 56.5126C14.1474 56.4672 14.2249 56.442 14.3047 56.44H16.8311C16.9105 56.4417 16.9877 56.4664 17.0533 56.511C17.119 56.5557 17.1703 56.6184 17.201 56.6916L17.8854 58.2674C17.9089 58.3224 17.9215 58.3814 17.9223 58.4412C17.9262 58.4657 17.9262 58.4907 17.9223 58.5152C17.9071 58.5606 17.8788 58.6005 17.841 58.6299L17.7226 58.7261C17.6936 58.7462 17.6695 58.7726 17.6522 58.8033C17.6349 58.8341 17.6248 58.8684 17.6227 58.9036C17.6165 58.9279 17.6165 58.9533 17.6227 58.9776C17.6472 59.0312 17.6871 59.0763 17.7374 59.1071C17.7967 59.1489 17.8683 59.1698 17.9408 59.1662H19.8274C19.8645 59.1718 19.9024 59.1659 19.9361 59.1494C19.9698 59.1329 19.9977 59.1065 20.016 59.0738C20.0318 59.0454 20.0406 59.0137 20.0419 58.9813C20.042 58.9527 20.0343 58.9245 20.0197 58.8999C19.988 58.856 19.9461 58.8204 19.8976 58.7963V58.7963ZM16.169 55.7816H14.9446C14.8763 55.7817 14.8089 55.765 14.7486 55.733C14.6882 55.701 14.6365 55.6546 14.5982 55.598C14.5599 55.5415 14.536 55.4763 14.5287 55.4084C14.5214 55.3404 14.5308 55.2717 14.5562 55.2083C14.6857 54.9012 14.8225 54.5757 14.9631 54.2317C15.0371 54.0616 15.1037 53.9025 15.1666 53.7508C15.1979 53.6751 15.251 53.6103 15.3191 53.5647C15.3873 53.5192 15.4674 53.4949 15.5494 53.4949C15.6314 53.4949 15.7115 53.5192 15.7797 53.5647C15.8478 53.6103 15.9009 53.6751 15.9323 53.7508L16.5537 55.2009C16.5775 55.2636 16.5858 55.3312 16.5779 55.3979C16.57 55.4645 16.5462 55.5283 16.5085 55.5838C16.4707 55.6394 16.4202 55.685 16.3611 55.7168C16.302 55.7487 16.2361 55.7658 16.169 55.7668V55.7816ZM25.3389 51.1097C25.2759 51.0522 25.1948 51.0182 25.1096 51.0135C25.0375 51.0138 24.9679 51.0401 24.9135 51.0875L24.1404 51.672L24.4808 52.0678C24.625 52.2453 24.7323 52.3859 24.8026 52.4932C24.8251 52.5325 24.8366 52.5773 24.8359 52.6226C24.8328 52.7001 24.8125 52.7759 24.7767 52.8446L22.7866 56.8839C22.7516 56.9573 22.6957 57.0188 22.626 57.0607C22.5563 57.1026 22.4758 57.123 22.3946 57.1195C22.3133 57.1159 22.2349 57.0885 22.1691 57.0407C22.1033 56.9929 22.0531 56.9268 22.0246 56.8506L20.1196 51.979C20.0987 51.9403 20.0873 51.8972 20.0863 51.8532C20.0819 51.8263 20.0819 51.7988 20.0863 51.7718C20.1058 51.7268 20.1363 51.6873 20.1751 51.6572L20.2934 51.5573C20.3214 51.5348 20.3444 51.5068 20.361 51.4749C20.3775 51.4431 20.3873 51.4082 20.3896 51.3723C20.3923 51.3515 20.3923 51.3303 20.3896 51.3095C20.3631 51.2605 20.3265 51.2176 20.2823 51.1837C20.227 51.1384 20.1578 51.1136 20.0863 51.1134H18.1961C18.1605 51.1105 18.1248 51.1168 18.0924 51.1317C18.06 51.1466 18.032 51.1696 18.0111 51.1985C17.9909 51.2266 17.9793 51.26 17.9778 51.2947C17.9773 51.3279 17.9877 51.3604 18.0074 51.3871C18.0278 51.4412 18.0673 51.4859 18.1184 51.5129C18.1836 51.5588 18.2545 51.5961 18.3292 51.6239C18.4147 51.6598 18.4976 51.7019 18.5771 51.7497C18.6983 51.8336 18.7963 51.9468 18.8619 52.0789C18.9285 52.2342 19.0358 52.5043 19.1837 52.8964L21.2922 58.7519L21.3551 58.9258C21.3703 58.9798 21.394 59.0309 21.4253 59.0775C21.4509 59.1089 21.4839 59.1335 21.5214 59.149C21.5588 59.1645 21.5996 59.1704 21.6399 59.1662H22.4833C22.5547 59.1655 22.6237 59.1407 22.6793 59.096C22.7211 59.0387 22.7559 58.9766 22.7829 58.911L25.5054 53.2478C25.6603 52.943 25.7937 52.6278 25.9049 52.3045C25.9369 52.2116 25.9544 52.1143 25.9567 52.016C25.958 51.9353 25.9433 51.8553 25.9134 51.7803C25.8836 51.7054 25.8392 51.6372 25.7828 51.5795L25.3389 51.1097ZM35.0452 51.0875H29.7778C29.565 51.0687 29.3509 51.1004 29.1526 51.18C29.0528 51.2392 29.0047 51.3908 29.0047 51.6276V52.6596C29.0047 52.8113 29.0898 52.889 29.2599 52.889C29.3487 52.889 29.4597 52.7965 29.5891 52.6115C29.7256 52.4101 29.879 52.2208 30.0478 52.0456C30.1055 51.9842 30.1756 51.9356 30.2533 51.9031C30.3311 51.8706 30.4148 51.8549 30.4991 51.8569H31.3647C31.4755 51.8569 31.5819 51.901 31.6602 51.9794C31.7386 52.0577 31.7827 52.1641 31.7827 52.2749V58.2452C31.7896 58.3328 31.7651 58.4199 31.7136 58.4911C31.662 58.5623 31.5869 58.6128 31.5015 58.6336C31.3166 58.7002 31.2241 58.8074 31.2241 58.948C31.2241 59.0886 31.3092 59.1699 31.4793 59.1699H33.3696C33.5397 59.1699 33.6211 59.096 33.6211 58.948C33.6211 58.8 33.5286 58.7002 33.3437 58.6336C33.2583 58.6128 33.1832 58.5623 33.1317 58.4911C33.0801 58.4199 33.0556 58.3328 33.0625 58.2452V52.2749C33.0625 52.1641 33.1066 52.0577 33.185 51.9794C33.2634 51.901 33.3697 51.8569 33.4805 51.8569H34.3239C34.4077 51.8547 34.4909 51.8704 34.5681 51.9029C34.6453 51.9354 34.7146 51.9841 34.7715 52.0456C34.9359 52.2246 35.0891 52.4136 35.2302 52.6115C35.3683 52.7965 35.4792 52.889 35.5631 52.889C35.7333 52.889 35.8183 52.8113 35.8183 52.6596V51.6276C35.8183 51.3834 35.7776 51.2318 35.6889 51.1726C35.4775 51.0942 35.251 51.0651 35.0267 51.0875H35.0452ZM45.0327 51.5832L44.574 51.1097C44.5109 51.0522 44.4299 51.0182 44.3446 51.0135C44.2724 51.0131 44.2025 51.0395 44.1486 51.0875L43.3718 51.672L43.7121 52.0678C43.8282 52.2036 43.9369 52.3456 44.0376 52.4932C44.0602 52.5325 44.0717 52.5773 44.0709 52.6226C44.0663 52.7003 44.0448 52.776 44.008 52.8446L42.0364 56.8839C42.0014 56.9573 41.9456 57.0188 41.8759 57.0607C41.8062 57.1026 41.7257 57.123 41.6444 57.1195C41.5632 57.1159 41.4847 57.0885 41.419 57.0407C41.3532 56.9929 41.3029 56.9268 41.2744 56.8506L39.3731 51.979C39.3522 51.9403 39.3408 51.8972 39.3398 51.8532C39.3355 51.8263 39.3355 51.7988 39.3398 51.7718C39.3592 51.7277 39.3883 51.6885 39.4249 51.6572L39.547 51.5573C39.5744 51.5346 39.5968 51.5065 39.6128 51.4746C39.6287 51.4428 39.6378 51.4079 39.6394 51.3723C39.6421 51.3515 39.6421 51.3303 39.6394 51.3095C39.6147 51.2604 39.5793 51.2174 39.5359 51.1837C39.4803 51.1389 39.4112 51.1142 39.3398 51.1134H37.4496C37.4141 51.1105 37.3784 51.1168 37.346 51.1317C37.3136 51.1466 37.2856 51.1696 37.2647 51.1985C37.2444 51.2266 37.2328 51.26 37.2314 51.2947C37.2297 51.3275 37.2388 51.3599 37.2573 51.3871C37.2792 51.4415 37.3199 51.4861 37.3719 51.5129C37.4372 51.5588 37.508 51.5961 37.5828 51.6239C37.6671 51.6599 37.7487 51.7019 37.8269 51.7497C37.949 51.8326 38.0472 51.9461 38.1117 52.0789C38.1783 52.2342 38.2856 52.5043 38.4373 52.8964L40.5457 58.7519C40.5457 58.7852 40.5753 58.8444 40.6049 58.9258C40.6208 58.9802 40.6459 59.0314 40.6789 59.0775C40.7033 59.1085 40.735 59.1331 40.7711 59.1492C40.8071 59.1653 40.8466 59.1724 40.886 59.1699H41.7257C41.7972 59.1698 41.8664 59.1449 41.9218 59.0997C41.9647 59.0425 42.0008 58.9804 42.029 58.9147L44.7367 53.2478C44.8942 52.9437 45.0289 52.6284 45.1399 52.3045C45.1719 52.2116 45.1894 52.1143 45.1917 52.016C45.1933 51.8544 45.1308 51.6988 45.0179 51.5832H45.0327Z" stroke="#027F8C" stroke-width="0.422769" stroke-miterlimit="10"/>
</g>
<defs>
<clipPath id="clip0_1_20375">
<rect width="50" height="59.3956" fill="white"/>
</clipPath>
</defs>
</svg>
