<svg width="21" height="10" viewBox="0 0 21 10" fill="none" xmlns="http://www.w3.org/2000/svg">
<path d="M0.600387 0.382399C0.882352 0.137549 1.26473 0 1.66343 0C2.06212 0 2.4445 0.137549 2.72646 0.382399L10.1692 6.84743L17.612 0.382399C17.8956 0.144488 18.2754 0.0128435 18.6696 0.0158193C19.0639 0.018795 19.441 0.156153 19.7198 0.398309C19.9985 0.640464 20.1567 0.968042 20.1601 1.31049C20.1635 1.65294 20.012 1.98285 19.7381 2.22918L11.2323 9.6176C10.9503 9.86245 10.5679 10 10.1692 10C9.77054 10 9.38816 9.86245 9.1062 9.6176L0.600387 2.22918C0.318507 1.98425 0.160156 1.65211 0.160156 1.30579C0.160156 0.959466 0.318507 0.627323 0.600387 0.382399Z" fill="white"/>
</svg>
