<svg width="12" height="7" viewBox="0 0 12 7" fill="none" xmlns="http://www.w3.org/2000/svg">
<path d="M0.264139 0.729439C0.433317 0.58253 0.662742 0.5 0.901961 0.5C1.14118 0.5 1.37061 0.58253 1.53978 0.729439L6.00545 4.60846L10.4711 0.729439C10.6413 0.586693 10.8691 0.507706 11.1057 0.509492C11.3422 0.511277 11.5685 0.593692 11.7358 0.738985C11.903 0.884278 11.9979 1.08083 12 1.28629C12.002 1.49176 11.9111 1.68971 11.7468 1.83751L6.64327 6.27056C6.47409 6.41747 6.24467 6.5 6.00545 6.5C5.76623 6.5 5.5368 6.41747 5.36762 6.27056L0.264139 1.83751C0.0950107 1.69055 0 1.49127 0 1.28347C0 1.07568 0.0950107 0.876394 0.264139 0.729439V0.729439Z" fill="#ABB6BB"/>
</svg>
