<svg width="16" height="16" viewBox="0 0 16 16" fill="none" xmlns="http://www.w3.org/2000/svg">
<path d="M8.95935 0.29337L5.25236 3.99994H0.999974C0.447488 3.99994 0 4.44743 0 4.99991V10.9998C0 11.5518 0.447488 11.9997 0.999974 11.9997H5.25236L8.95935 15.7059C9.58558 16.3321 10.6664 15.8921 10.6664 14.9988V1.00085C10.6664 0.106291 9.58475 -0.331614 8.95935 0.29337ZM14.0925 4.79659C13.6101 4.53284 13.0013 4.70659 12.7338 5.19033C12.4676 5.67406 12.6438 6.28196 13.1276 6.54904C13.6655 6.84487 13.9996 7.40068 13.9996 7.99984C13.9996 8.59899 13.6655 9.15481 13.128 9.45021C12.6443 9.71729 12.468 10.3252 12.7343 10.8089C13.0022 11.2948 13.6113 11.4672 14.093 11.2027C15.2692 10.5548 16 9.32772 16 7.99942C16 6.67112 15.2692 5.44449 14.0925 4.79659Z" fill="white"/>
</svg>
