<svg width="15" height="10" viewBox="0 0 15 10" fill="none" xmlns="http://www.w3.org/2000/svg">
<path d="M14.0113 1.5424C13.9282 1.24525 13.7697 0.974606 13.5513 0.756663C13.3329 0.538719 13.0619 0.380864 12.7646 0.298381C11.6485 1.42646e-05 7.16184 1.43367e-05 7.16184 1.43367e-05C7.16184 1.43367e-05 2.68365 -0.00714297 1.55594 0.298381C1.2591 0.381226 0.988641 0.539247 0.770718 0.75717C0.552795 0.975094 0.394774 1.24555 0.311929 1.5424C0.0999853 2.68497 -0.00440007 3.84489 0.000142063 5.00694C-0.00192597 6.1634 0.102443 7.3176 0.311929 8.45493C0.395042 8.75194 0.553109 9.02259 0.770957 9.24091C0.988805 9.45923 1.25912 9.61788 1.55594 9.70163C2.67202 10 7.16184 10 7.16184 10C7.16184 10 11.6373 10 12.7646 9.70163C13.0619 9.61824 13.3328 9.45975 13.5511 9.24142C13.7694 9.02308 13.9279 8.75224 14.0113 8.45493C14.2166 7.31828 14.3168 6.16239 14.3097 5.00694C14.3168 3.84389 14.2189 2.68621 14.0113 1.5424ZM5.72861 7.14829V2.85619L9.46334 5.00694L5.72861 7.14829Z" fill="#BBC7CA"/>
</svg>
